<svg id="_x31__px" enable-background="new 0 0 24 24" height="512" viewBox="0 0 24 24" width="512" xmlns="http://www.w3.org/2000/svg"><g id="XMLID_1_"><path d="m21.8 7.16-2.78 2.78c-.1.1-.22.15-.35.15s-.25-.05-.35-.15c-.2-.19-.2-.51 0-.7l2.42-2.43-.25-.25c.09.1.22.14.35.14s.26-.04.35-.14l.36-.36.26.26c.09.09.14.22.14.35s-.05.26-.15.35z"/><path d="m18.51 3.16 2.33 2.34-2.34-2.34z"/><path d="m19.47.78c1-1 2.75-1 3.75 0 .5.5.78 1.16.78 1.87s-.28 1.38-.78 1.88l-1.67 1.67-.7-.7 1.67-1.68c.31-.31.48-.73.48-1.17s-.17-.85-.48-1.17c-.63-.62-1.72-.62-2.34 0l-1.67 1.68h-.01l-.7-.71z"/><path d="m19.97 15.03c.2.19.2.51 0 .7l-1.77 1.77-.7-.7 1.77-1.77c.19-.2.51-.2.7 0z"/><path d="m19.97 19.27c.2.19.2.51 0 .71-.09.09-.22.14-.35.14s-.26-.05-.35-.14l-1.77-1.77.7-.71z"/><path d="m18.5 3.16 2.34 2.34h.01l.7.7-.36.36c-.09.1-.22.14-.35.14s-.26-.04-.35-.14l-3.05-3.05c-.19-.19-.19-.51 0-.7l.36-.36z"/><path d="m18.2 17.5-.7.71-.71-.71.71-.7z"/><path d="m16.31 2.82c.19.2.19.52 0 .71-.2.19-.51.19-.71 0l-.04-.05.7-.7z"/><path d="m15.73 15.03 1.77 1.77-.71.7-1.77-1.77c-.19-.19-.19-.51 0-.7.2-.2.52-.2.71 0z"/><path d="m15.73 19.97c-.09.1-.22.15-.35.15s-.26-.05-.36-.14c-.19-.2-.19-.52 0-.71l1.77-1.77.71.71z"/><path d="m17.5 24c-3.23 0-5.93-2.38-6.42-5.48-.05-.33-.08-.67-.08-1.02 0-3.58 2.92-6.5 6.5-6.5.35 0 .69.03 1.02.08 3.1.49 5.48 3.19 5.48 6.42 0 3.58-2.92 6.5-6.5 6.5zm0-12c-3.03 0-5.5 2.47-5.5 5.5s2.47 5.5 5.5 5.5 5.5-2.47 5.5-5.5-2.47-5.5-5.5-5.5z"/><path d="m9.24 18.32c.19-.2.51-.2.7 0 .1.1.15.22.15.35s-.05.25-.15.35l-2.18 2.18c.18-.2.17-.5-.02-.68l-.35-.35z"/><path d="m15.25 3.17c-.39-.39-1.03-.39-1.43 0l-5.32 5.33c-.1.1-.23.15-.36.15s-.25-.05-.35-.15c-.2-.19-.2-.51 0-.71l5.33-5.32c.78-.79 2.05-.78 2.83 0l.31.31-.7.7z"/><path d="m7.74 21.22v.01c-.03.03-.07.06-.12.08.04-.02.08-.05.12-.09z"/><path d="m7.74 20.52c.19.18.2.48.02.68 0 .01-.02.02-.02.02-.04.04-.08.07-.12.09-.01.01-.02.02-.04.02-.06.03-.12.04-.19.04-.13 0-.26-.05-.35-.14l-.55-.55.62-.24.28-.27z"/><path d="m7.39 20.17-.28.27-.62.24-3.17-3.17.24-.62.28-.27z"/><path d="m2.77 16.96c-.14-.14-.18-.36-.1-.54 0-.01.01-.03.02-.04.02-.04.05-.08.09-.12 0 0 .01-.02.02-.02.2-.18.49-.17.68.02l.36.36-.28.27-.24.62z"/><path d="m17.19 3.26-13.35 13.36-.36-.36c-.19-.19-.48-.2-.68-.02l12.76-12.76.04.05c.2.19.51.19.71 0 .19-.19.19-.51 0-.71l-.05-.04.58-.58c.09-.1.22-.15.35-.15s.26.05.36.15l.25.25-.36.36c-.19.19-.19.51 0 .7z"/><path d="m2.78 16.26c-.04.04-.07.08-.09.12.02-.04.05-.08.08-.12z"/><path d="m.03 23.32 2.63-6.89s0-.01.01-.01c-.08.18-.04.4.1.54l.55.55-1.95 5.13 5.12-1.96.55.55c.09.09.22.14.35.14.07 0 .13-.01.19-.04 0 .01-.01.01-.01.01l-6.89 2.63c-.06.02-.12.03-.18.03-.13 0-.26-.05-.35-.15-.14-.14-.19-.34-.12-.53z"/></g></svg>