<svg id="Layer_1" enable-background="new 0 0 512 512" height="512" viewBox="0 0 512 512" width="512" xmlns="http://www.w3.org/2000/svg"><g><path d="m338.015 325.556c-12.586-27.264-37.961-46.263-67.015-51.193v-259.363c0-8.284-6.716-15-15-15s-15 6.716-15 15v259.362c-29.048 4.927-54.428 23.927-67.015 51.195-28.269 61.238-76.205 165.11-76.205 165.11-2.144 4.645-1.772 10.061.985 14.37s7.52 6.916 12.635 6.916h36.375c19.974 0 38.503-7.953 51.992-21.637 23.401 23.738 52.006 21.637 56.382 21.637 4.23 0 32.729 2.057 56.085-21.637 13.488 13.684 32.018 21.637 51.992 21.637h36.374c5.115 0 9.878-2.607 12.635-6.916s3.128-9.725.985-14.37c0 0-47.936-103.872-76.205-165.111zm-136.792 12.574c9.729-21.077 30.901-34.761 54.088-35.031.23.01.456.035.689.035.234 0 .462-.024.693-.035 23.176.266 44.352 13.951 54.084 35.031 2.239 4.85 4.606 9.978 7.058 15.29h-123.67c2.452-5.312 4.819-10.441 7.058-15.29zm163.002 143.822c-16.438 0-31.22-9.136-38.576-23.844-2.542-5.081-7.735-8.29-13.416-8.29-5.68 0-10.874 3.209-13.415 8.29-12.514 25.018-37.088 23.844-42.949 23.844-7.033 0-30.598.325-42.688-23.844-2.541-5.081-7.734-8.29-13.415-8.29s-10.874 3.209-13.416 8.29c-7.356 14.708-22.138 23.844-38.576 23.844h-12.932c10.752-23.298 28.699-62.187 45.475-98.533h151.364c16.776 36.347 34.724 75.235 45.475 98.533z"/><path d="m501.438 56.902c-21.682-7.337-38.953-24.594-46.313-46.266-1.869-6.155-7.589-10.632-14.355-10.632-6.737 0-12.438 4.445-14.331 10.562-7.337 21.682-24.593 38.954-46.266 46.313-6.155 1.869-10.633 7.589-10.633 14.355 0 6.737 4.445 12.438 10.562 14.331 21.682 7.337 38.954 24.593 46.313 46.266 1.869 6.155 7.589 10.633 14.355 10.633 6.737 0 12.437-4.445 14.331-10.561 7.337-21.683 24.594-38.955 46.266-46.313 6.155-1.87 10.633-7.59 10.633-14.357 0-6.737-4.445-12.437-10.562-14.331zm-60.667 38.069c-6.582-9.129-14.608-17.155-23.737-23.737 9.128-6.582 17.155-14.608 23.737-23.737 6.582 9.129 14.608 17.155 23.737 23.737-9.129 6.581-17.155 14.608-23.737 23.737z"/><path d="m79.267 54.1h9.1v9.1c0 8.284 6.716 15 15 15s15-6.716 15-15v-9.1h9.1c8.284 0 15-6.716 15-15s-6.716-15-15-15h-9.1v-9.1c0-8.284-6.716-15-15-15s-15 6.716-15 15v9.1h-9.1c-8.284 0-15 6.716-15 15s6.715 15 15 15z"/><path d="m432.733 265.1h-9.1v-9.1c0-8.284-6.716-15-15-15s-15 6.716-15 15v9.1h-9.1c-8.284 0-15 6.716-15 15s6.716 15 15 15h9.1v9.1c0 8.284 6.716 15 15 15s15-6.716 15-15v-9.1h9.1c8.284 0 15-6.716 15-15s-6.715-15-15-15z"/><path d="m131.826 262.322c6.155-1.869 10.633-7.589 10.633-14.355 0-6.737-4.445-12.438-10.562-14.331-21.683-7.337-38.956-24.595-46.314-46.27-1.87-6.153-7.589-10.629-14.354-10.629-6.737 0-12.437 4.444-14.331 10.56-7.337 21.683-24.594 38.956-46.266 46.314-6.154 1.869-10.632 7.59-10.632 14.356 0 6.737 4.445 12.438 10.562 14.331 21.682 7.337 38.953 24.594 46.313 46.266 1.869 6.155 7.589 10.632 14.355 10.632 6.737 0 12.438-4.445 14.331-10.562 7.337-21.681 24.593-38.953 46.265-46.312zm-60.597 9.382c-6.582-9.129-14.608-17.155-23.737-23.737 9.129-6.582 17.155-14.608 23.737-23.737 6.582 9.129 14.608 17.155 23.737 23.737-9.128 6.582-17.154 14.608-23.737 23.737z"/></g></svg>