<svg id="_x31__x2C_5" enable-background="new 0 0 24 24" height="512" viewBox="0 0 24 24" width="512" xmlns="http://www.w3.org/2000/svg"><path d="m17 22c-2.757 0-5-2.243-5-5s2.243-5 5-5 5 2.243 5 5-2.243 5-5 5zm0-8.5c-1.93 0-3.5 1.57-3.5 3.5s1.57 3.5 3.5 3.5 3.5-1.57 3.5-3.5-1.57-3.5-3.5-3.5z"/><path d="m23.25 24c-.192 0-.384-.073-.53-.22l-3.068-3.068c-.293-.293-.293-.768 0-1.061s.768-.293 1.061 0l3.068 3.068c.293.293.293.768 0 1.061-.147.147-.339.22-.531.22z"/><path d="m7 5c-.716 0-7-.07-7-2.5s6.284-2.5 7-2.5 7 .07 7 2.5-6.284 2.5-7 2.5zm-5.436-2.5c.471.401 2.447 1 5.436 1s4.965-.599 5.436-1c-.471-.401-2.447-1-5.436-1s-4.965.599-5.436 1zm10.957.094h.01z"/><path d="m7 9c-.716 0-7-.07-7-2.5 0-.414.336-.75.75-.75s.75.336.75.75c.218.299 2.268 1 5.5 1s5.282-.701 5.521-1.094c0-.415.325-.703.74-.703.413 0 .739.383.739.797 0 2.43-6.284 2.5-7 2.5z"/><path d="m7 13c-.716 0-7-.07-7-2.5 0-.414.336-.75.75-.75.391 0 .712.3.747.682.305.396 2.334 1.068 5.503 1.068 1.568 0 3.016-.158 4.074-.444.397-.11.811.127.92.528.108.4-.128.812-.528.92-1.183.32-2.769.496-4.466.496zm-5.5-2.5h.01z"/><path d="m13.25 11c-.414 0-.75-.336-.75-.75v-7.75c0-.414.336-.75.75-.75s.75.336.75.75v7.75c0 .414-.336.75-.75.75z"/><path d="m7 17c-.716 0-7-.07-7-2.5v-12c0-.414.336-.75.75-.75s.75.336.75.75v12c.217.3 2.265 1 5.5 1 .792 0 1.537-.039 2.216-.115.402-.052.783.249.829.661s-.25.783-.661.829c-.735.083-1.537.125-2.384.125z"/></svg>