<svg id="outline" height="512" viewBox="0 0 512 512" width="512" xmlns="http://www.w3.org/2000/svg"><path d="m56 208h32v16h-32z"/><path d="m424 208h32v16h-32z"/><path d="m109.893 338.107h32v16h-32z" transform="matrix(.707 -.707 .707 .707 -207.864 190.396)"/><path d="m370.108 77.892h32v16h-32z" transform="matrix(.707 -.707 .707 .707 52.355 298.18)"/><path d="m248 16h16v32h-16z"/><path d="m378.107 330.108h16v32h-16z" transform="matrix(.707 -.707 .707 .707 -131.647 374.386)"/><path d="m117.892 69.892h16v32h-16z" transform="matrix(.707 -.707 .707 .707 -23.862 114.175)"/><path d="m154.12207 205.42627 96 104a7.99893 7.99893 0 0 0 11.75586 0l96-104a7.99835 7.99835 0 0 0 -.75684-11.57227l-48-40a8.00105 8.00105 0 0 0 -5.12109-1.854h-96a8.00105 8.00105 0 0 0 -5.12109 1.854l-48 40a7.99835 7.99835 0 0 0 -.75684 11.57227zm154.99658 2.57373h24.60935l-49.21875 53.32056zm-53.11865 76.90942-35.49658-76.90942h70.99316zm-31.355-92.90942 19.20019-24h24.30958l19.20023 24zm-21.76367 16 24.60937 53.32056-49.2187-53.32056zm127.02246-16h-22.0586l-19.20019-24h12.4585zm-119.00731-24h12.45852l-19.20019 24h-22.0586z"/><path d="m112 216a144.3669 144.3669 0 0 0 80 129.02979v110.97021a7.95449 7.95449 0 0 0 .85059 3.57471l-.00586.00293 16 32a7.99979 7.99979 0 0 0 7.15527 4.42236h80a7.99979 7.99979 0 0 0 7.15527-4.42236l16-32-.00586-.00293a7.95449 7.95449 0 0 0 .85059-3.57471v-110.97021a143.91471 143.91471 0 0 0 50.89355-42.32532q.52-.68684 1.03028-1.38074c.41406-.56323.83008-1.12476 1.23633-1.69385q1.2246-1.7113 2.40136-3.45874c.05469-.08227.10791-.16552.16309-.2478a143.09166 143.09166 0 0 0 23.90139-69.59876c.01074-.14514.01806-.29089.02783-.43615q.14136-2.06433.22168-4.14429c.01465-.36694.02978-.73389.042-1.10144.0488-1.54236.08249-3.08862.08249-4.6427 0-79.40186-64.59766-144-144-144s-144 64.59814-144 144zm192 232h-96v-48h96zm-12.94434 32h-70.11132l-8-16h86.11132zm-35.05566-392a128.14509 128.14509 0 0 1 128 128c0 1.41943-.03125 2.83423-.07812 4.24609-.01026.32178-.02344.64295-.03663.96412-.05615 1.371-.12646 2.7395-.22607 4.10229l-.00342.05347a128.06767 128.06767 0 0 1 -20.13183 60.00378c-.02881.045-.05909.08923-.08838.13416-.65967 1.02-1.34082 2.02539-2.0293 3.02636-.26367.38221-.52588.76526-.79395 1.14429-.45214.64307-.91748 1.27686-1.38134 1.91162q-1.166 1.58771-2.37451 3.14111c-.08985.11548-.1792.23145-.26954.34644a127.84169 127.84169 0 0 1 -100.58691 48.92627v16a143.34631 143.34631 0 0 0 48-8.23645v32.23645h-96v-44.02832a8.0003 8.0003 0 0 0 -4.70215-7.28857 128.022 128.022 0 0 1 52.70215-244.68311z"/></svg>